<svg width="20" height="25" viewBox="0 0 20 25" fill="none" xmlns="http://www.w3.org/2000/svg"><path d="M9.605 12.044a5.693 5.693 0 1 1 0-11.386 5.693 5.693 0 0 1 0 11.386Zm0-10.12a4.428 4.428 0 1 0 4.428 4.427 4.428 4.428 0 0 0-4.428-4.46v.032Zm7.762 22.45H1.843a1.828 1.828 0 0 1-1.354-.582 1.556 1.556 0 0 1-.41-1.17c.512-5.593 4.605-9.812 9.526-9.812 4.922 0 9.014 4.188 9.527 9.812.04.44-.11.878-.411 1.201a1.828 1.828 0 0 1-1.354.55Zm-7.762-10.33c-4.264 0-7.819 3.726-8.268 8.66a.304.304 0 0 0 .089.234c.109.112.26.174.417.17h15.524a.563.563 0 0 0 .418-.17.304.304 0 0 0 .088-.234c-.45-4.934-4.004-8.66-8.268-8.66Z" fill="#212A2F"/></svg>